# xmcd CD database file
# Copyright (C) 1995-1998 Ti Kan
#
# Track frame offsets:
#	150
#	11101
#	26651
#	39159
#	53746
#	72486
#	93659
#	112368
#	135023
#	154488
#	171761
#	190778
#	212093
#
# Disc length: 3087 seconds
#
# Revision: 1
# Processed by: cddbd v1.4PL0 Copyright (c) Steve Scherf et al.
# Submitted via: CDex 1.30Release
#
DISCID=b40c0d0d
DTITLE=John Farnham - 33 1/3
DYEAR=2000
DGENRE=Blues
TTITLE0=That Driving Beat
TTITLE1=Trying To Live My Life Without You
TTITLE2=You Don't Know Like I Know
TTITLE3=Everything Is Gonna Be All Right
TTITLE4=Man Of The Hour
TTITLE5=I've Been Lonely For So Long
TTITLE6=That's What Love Will Make You Do
TTITLE7=I Can't Get Next To You
TTITLE8=You're The Only One
TTITLE9=I Thank You
TTITLE10=Soul Reason
TTITLE11=The Way
TTITLE12=Walk Away
EXTD=YEAR: 2000 ID3G:   0
EXTT0=
EXTT1=
EXTT2=
EXTT3=
EXTT4=
EXTT5=
EXTT6=
EXTT7=
EXTT8=
EXTT9=
EXTT10=
EXTT11=
EXTT12=
PLAYORDER=
